<?xml version="1.0" standalone="no"?>
<!DOCTYPE svg PUBLIC "-//W3C//DTD SVG 20010904//EN"
 "http://www.w3.org/TR/2001/REC-SVG-20010904/DTD/svg10.dtd">
<svg version="1.0" xmlns="http://www.w3.org/2000/svg"
 width="128.000000pt" height="128.000000pt" viewBox="0 0 128.000000 128.000000"
 preserveAspectRatio="xMidYMid meet">
<g transform="translate(0.000000,128.000000) scale(0.100000,-0.100000)"
fill="#000000" stroke="none">
<path d="M75 1273 c-42 -11 -65 -44 -65 -95 0 -68 147 -867 165 -894 8 -12 23
-25 34 -29 17 -5 20 -17 23 -104 2 -78 7 -103 21 -119 18 -20 77 -36 77 -20 0
4 106 8 235 8 129 0 235 -4 235 -8 0 -16 59 0 77 20 14 16 19 41 21 118 4 93
5 98 28 109 31 14 54 66 47 104 -3 15 -20 40 -38 55 -23 19 -34 39 -38 67 -12
74 -14 75 -313 75 -144 0 -265 3 -267 8 -3 4 -8 28 -11 54 l-7 48 191 0 c105
0 199 4 209 10 10 5 24 23 31 40 15 35 0 84 -31 100 -10 6 -110 10 -224 10
-156 0 -207 3 -209 13 -3 6 -7 26 -10 43 -5 30 -3 32 32 39 49 9 82 40 82 79
0 17 -7 67 -15 111 -19 101 -37 119 -112 113 -29 -3 -53 -1 -53 3 0 24 -77 52
-115 42z m64 -57 c6 -7 27 -101 47 -207 33 -183 34 -196 19 -222 -19 -32 -13
-61 20 -97 18 -19 28 -53 46 -150 12 -69 26 -131 32 -138 7 -9 33 -12 86 -10
68 3 76 5 76 23 0 18 -8 20 -61 23 -54 3 -63 6 -68 25 -15 55 -27 52 251 47
l258 -5 3 -32 3 -33 -101 0 c-99 0 -101 0 -98 -22 3 -22 7 -23 123 -26 108 -2
122 -4 138 -23 22 -27 21 -35 -3 -59 -19 -19 -33 -20 -343 -20 -244 0 -327 3
-340 13 -14 9 -36 111 -98 451 -76 415 -79 439 -63 457 20 22 57 25 73 5z
m154 -49 c3 -8 11 -48 18 -90 14 -85 11 -93 -37 -103 l-30 -6 -17 90 c-24 124
-24 122 22 122 23 0 41 -5 44 -13z m-28 -355 c-3 -3 -11 0 -18 7 -9 10 -8 11
6 5 10 -3 15 -9 12 -12z m416 -44 c11 -16 11 -20 0 -36 -12 -19 -409 -19 -428
1 -16 16 -8 45 15 49 9 2 103 2 210 1 150 -1 197 -5 203 -15z m-373 -233 c-3
-3 -9 2 -12 12 -6 14 -5 15 5 6 7 -7 10 -15 7 -18z m542 -378 c0 -51 -5 -88
-12 -95 -17 -17 -529 -17 -546 0 -7 7 -12 44 -12 95 l0 83 285 0 285 0 0 -83z"/>
<path d="M534 429 c-3 -6 1 -18 9 -27 13 -12 19 -13 31 -3 8 7 12 19 9 27 -6
17 -39 19 -49 3z"/>
<path d="M960 1273 c-55 -8 -70 -14 -100 -39 -64 -55 -72 -85 -68 -284 l3
-178 31 -39 c16 -21 50 -48 75 -61 39 -20 56 -23 145 -20 91 3 105 6 141 31
75 52 83 80 83 281 0 196 -3 211 -65 264 -38 34 -74 47 -105 39 -11 -3 -20 -1
-20 5 0 5 -7 2 -16 -7 -9 -9 -23 -14 -31 -11 -8 3 -21 6 -29 6 -9 0 -12 5 -9
10 3 6 3 9 -2 9 -4 -1 -19 -3 -33 -6z m196 -69 c64 -47 69 -62 72 -225 4 -176
-9 -219 -77 -257 -54 -30 -190 -32 -239 -2 -64 39 -72 66 -72 246 0 151 1 163
23 195 36 55 78 70 179 67 69 -2 92 -7 114 -24z"/>
<path d="M919 1141 l-29 -29 0 -146 c0 -146 0 -146 28 -177 23 -26 38 -33 80
-37 70 -6 120 5 148 33 23 23 24 29 24 178 l0 153 -28 27 c-26 25 -35 27 -111
27 -78 0 -84 -2 -112 -29z m186 -31 c12 -10 15 -39 15 -151 0 -159 0 -159 -91
-159 -84 0 -89 9 -89 166 0 118 2 134 19 146 23 16 125 15 146 -2z"/>
</g>
</svg>
